<svg width="50" height="50" viewBox="0 0 50 50" fill="none" xmlns="http://www.w3.org/2000/svg">
<rect width="50" height="50" fill="#F5F5F5"/>
<g id="Desktop - 1440" clip-path="url(#clip0_0_1)">
<rect width="1440" height="4690" transform="translate(-315 -1303)" fill="white"/>
<g id="Skills">
<rect id="Rectangle" x="-315" y="-279" width="1440" height="993" fill="#252527"/>
<g id="Group">
<g id="Skill">
<rect id="Rectangle 4" x="25" y="-32" width="80" height="80" transform="rotate(45 25 -32)" fill="white" fill-opacity="0.1"/>
<g id="code-svg">
<path id="Vector" fill-rule="evenodd" clip-rule="evenodd" d="M18.3125 42.0645L27.2623 6.6875L31.4375 7.87241L22.4878 43.3125L18.3125 42.0645Z" fill="#7572D5"/>
<path id="Vector_2" fill-rule="evenodd" clip-rule="evenodd" d="M13.5025 12.6875L16.5625 15.9278L7.99501 25.0001L16.5625 34.0721L13.5025 37.3125L1.875 25.0001L13.5025 12.6875Z" fill="#7572D5"/>
<path id="Vector_3" fill-rule="evenodd" clip-rule="evenodd" d="M36.4976 12.6875L33.4375 15.9278L42.0051 25.0001L33.4375 34.0721L36.4976 37.3125L48.125 25.0001L36.4976 12.6875Z" fill="#7572D5"/>
</g>
</g>
</g>
</g>
</g>
<defs>
<clipPath id="clip0_0_1">
<rect width="1440" height="4690" fill="white" transform="translate(-315 -1303)"/>
</clipPath>
</defs>
</svg>
